<svg width="150" height="35" viewBox="0 0 150 35" fill="none" xmlns="http://www.w3.org/2000/svg">
  <!--
    Lion head: 12-spike starburst mane, face features as evenodd cutouts.
    Center (17, 17), outer-mane r=16, inner-mane r=11.5
  -->
  <path fill-rule="evenodd" fill="white" d="
    M 17 1
    L 20 5.9  L 25 3.1
    L 25.1 8.9  L 30.9 9
    L 28.1 14  L 33 17
    L 28.1 20  L 30.9 25
    L 25.1 25.1  L 25 30.9
    L 20 28.1  L 17 33
    L 14 28.1  L 9 30.9
    L 8.9 25.1  L 3.1 25
    L 5.9 20  L 1 17
    L 5.9 14  L 3.1 9
    L 8.9 8.9  L 9 3.1
    L 14 5.9 Z

    M 10.9 15 A 1.6 1.6 0 1 0 14.1 15 A 1.6 1.6 0 1 0 10.9 15 Z

    M 19.9 15 A 1.6 1.6 0 1 0 23.1 15 A 1.6 1.6 0 1 0 19.9 15 Z

    M 17 18.5 L 15.4 21 L 18.6 21 Z

    M 14.2 22.2 Q 17 25 19.8 22.2 L 19.2 22.2 Q 17 24.2 14.8 22.2 Z
  "/>

  <!-- RA-HTR text -->
  <text
    x="40" y="26"
    fill="white"
    font-family="Arial, Helvetica, sans-serif"
    font-size="17"
    font-weight="700"
    letter-spacing="1.5"
  >RA-HTR</text>
</svg>
